<svg xmlns="http://www.w3.org/2000/svg" viewBox="0 0 64 64" role="img" aria-label="Villas Cangrejo">
  <!-- Emblema circular -->
  <circle cx="32" cy="32" r="30.5" fill="#faf8f4" stroke="#c9a058" stroke-width="2"/>

  <!-- Patas -->
  <g stroke="#1a8a94" stroke-width="2.4" stroke-linecap="round" fill="none">
    <path d="M22 39 L11 41"/>
    <path d="M23 43 L13 47"/>
    <path d="M25 47 L17 53"/>
    <path d="M42 39 L53 41"/>
    <path d="M41 43 L51 47"/>
    <path d="M39 47 L47 53"/>
  </g>

  <!-- Brazos hacia las tenazas -->
  <g stroke="#1a8a94" stroke-width="2.6" stroke-linecap="round" fill="none">
    <path d="M25 34 C19 31 16 27 16 24"/>
    <path d="M39 34 C45 31 48 27 48 24"/>
  </g>

  <!-- Tenazas (pinzas) -->
  <g fill="#c9a058">
    <path d="M16 23 L10 19 A5.5 5.5 0 1 1 10 27 Z"/>
    <path d="M48 23 L54 19 A5.5 5.5 0 1 0 54 27 Z"/>
  </g>

  <!-- Caparazón -->
  <ellipse cx="32" cy="38" rx="14" ry="10" fill="#0b3d4e"/>
  <path d="M22 37 Q32 31 42 37" stroke="#5ec4cc" stroke-width="2" stroke-linecap="round" fill="none"/>

  <!-- Ojos -->
  <g stroke="#0b3d4e" stroke-width="2.6" stroke-linecap="round">
    <path d="M28 29 L27 22"/>
    <path d="M36 29 L37 22"/>
  </g>
  <circle cx="27" cy="20" r="2.8" fill="#c9a058"/>
  <circle cx="37" cy="20" r="2.8" fill="#c9a058"/>
</svg>
